<svg xmlns="http://www.w3.org/2000/svg" viewBox="0 0 319.62 133.81"><defs><style>.cls-1{fill:#313437;}.cls-2{fill:#e4408;}</style></defs><g id="Layer_2" data-name="Layer 2"><g id="Layer_1-2" data-name="Layer 1"><path class="cls-1" d="M136.33,39.7A39.75,39.75,0,0,0,96.62,0H33.55V25H96.62a14.71,14.71,0,1,1,0,29.41H33.55v25H96.62a14.7,14.7,0,1,1,0,29.4H88.57v25h8.05a39.66,39.66,0,0,0,28.88-66.9A39.56,39.56,0,0,0,136.33,39.7Z"/><path class="cls-2" d="M80,133.81H39.71A39.75,39.75,0,0,1,0,94.1V.37H25V94.1a14.73,14.73,0,0,0,14.71,14.71H80Z"/><path class="cls-1" d="M165.53,94.11v-1l1.73-.67a5.34,5.34,0,0,0,2.63-1.91,5.74,5.74,0,0,0,.72-3.07v-50a5.94,5.94,0,0,0-.72-3.16,4.92,4.92,0,0,0-2.63-1.82l-1.73-.67v-.95H193q11.68,0,16.85,4.26A13.36,13.36,0,0,1,215,45.94a12.56,12.56,0,0,1-3.78,8.86q-3.78,4-13,5.6,10.54,1.16,15.42,5.51a13.65,13.65,0,0,1,4.89,10.58,15.63,15.63,0,0,1-1.34,6.18,15.19,15.19,0,0,1-4.55,5.7,24.63,24.63,0,0,1-8.77,4.16,52.58,52.58,0,0,1-14.07,1.58Zm19.25-33.8h4.12q6.42,0,9.24-3T201,47q0-7.65-2.59-10.91T190,32.82h-5.17Zm0,31.89h4.79q7.19,0,10.68-3.83t3.49-12q0-7.65-3.35-10.91c-2.23-2.17-5.91-3.26-11-3.26h-4.6Z"/><path class="cls-1" d="M222.8,94.11v-1l1.34-.38a4.45,4.45,0,0,0,2.63-1.72,5.74,5.74,0,0,0,.72-3.07V58a5.2,5.2,0,0,0-.72-3,4.08,4.08,0,0,0-2.63-1.39l-1.34-.28v-1l17.52-5.65,1,.95L241,61.26V88.08a5.68,5.68,0,0,0,.72,3.06,4.44,4.44,0,0,0,2.54,1.73l1,.28v1Zm11.3-52.48a7.84,7.84,0,0,1-5.51-2.06,6.76,6.76,0,0,1-2.25-5.22,6.71,6.71,0,0,1,2.25-5.26,8,8,0,0,1,5.51-2,7.8,7.8,0,0,1,5.46,2,6.77,6.77,0,0,1,2.2,5.26,6.82,6.82,0,0,1-2.2,5.22A7.66,7.66,0,0,1,234.1,41.63Z"/><path class="cls-2" d="M273.46,46.61a21,21,0,0,1,10.63,2.54A17.4,17.4,0,0,1,290.84,56,20.65,20.65,0,0,1,293.19,66c0,.7,0,1.42-.1,2.15a8.31,8.31,0,0,1-.38,2H264.17q.09,10.35,3.69,14.9t10.67,4.54A17,17,0,0,0,286.29,88a19,19,0,0,0,5.56-4.5l.95.86a22,22,0,0,1-7.9,8.24,22.5,22.5,0,0,1-11.82,3A24.53,24.53,0,0,1,261,92.63a20.66,20.66,0,0,1-8.24-8.38,26.88,26.88,0,0,1-3-13,24.7,24.7,0,0,1,3.44-13.36,23.23,23.23,0,0,1,8.86-8.38A23.94,23.94,0,0,1,273.46,46.61Zm-.29,1.92a7.09,7.09,0,0,0-4.74,1.67q-2,1.68-3.06,5.94a52.69,52.69,0,0,0-1.2,12h16.38q.94-10.44-.77-15A6.5,6.5,0,0,0,273.17,48.53Z"/><path class="cls-2" d="M296.73,94.11v-1l1.15-.38A4.63,4.63,0,0,0,301.33,88V36.75a4.75,4.75,0,0,0-.77-2.92,4.7,4.7,0,0,0-2.68-1.49l-1.25-.28v-1L314.16,27l1.15.86-.38,13.41V74q0,3.54,0,7T315,88a5.58,5.58,0,0,0,.77,3.11,4.57,4.57,0,0,0,2.58,1.78l1.25.28v1Z"/></g></g></svg>